<svg xmlns="http://www.w3.org/2000/svg" viewBox="0 0 2000 1200" width="2000" height="1200">
  <g opacity="0.14" fill="#043361" stroke="#043361" stroke-width="1.5">

    <!-- Fragment 1: Fused bicyclic at (200,180), rotated 12 deg -->
    <g transform="translate(200,180) rotate(12)">
      <path d="M-26 -30 L0 -15 L26 -30 L52 -15 L52 15 L26 30 L0 15 L-26 30 L-52 15 L-52 -15 Z" fill="none"/>
      <line x1="0" y1="-15" x2="0" y2="15"/>
      <line x1="-24" y1="27" x2="-49" y2="14" stroke-width="0.7"/>
      <line x1="28" y1="27" x2="49" y2="14" stroke-width="0.7"/>
      <circle cx="-26" cy="-30" r="3.5" stroke="none"/>
      <circle cx="0" cy="-15" r="3" stroke="none"/>
      <circle cx="26" cy="-30" r="3.5" stroke="none"/>
      <circle cx="52" cy="-15" r="3" stroke="none"/>
      <circle cx="52" cy="15" r="3" stroke="none"/>
      <circle cx="26" cy="30" r="3.5" stroke="none"/>
      <circle cx="0" cy="15" r="3" stroke="none"/>
      <circle cx="-26" cy="30" r="3.5" stroke="none"/>
      <circle cx="-52" cy="15" r="3" stroke="none"/>
      <circle cx="-52" cy="-15" r="3" stroke="none"/>
      <line x1="-26" y1="-30" x2="-38" y2="-55"/>
      <circle cx="-38" cy="-55" r="5" stroke="none"/>
      <line x1="52" y1="-15" x2="78" y2="-25"/>
      <circle cx="78" cy="-25" r="3.5" stroke="none"/>
      <line x1="26" y1="30" x2="26" y2="58"/>
      <circle cx="26" cy="58" r="5" stroke="none"/>
      <line x1="-52" y1="15" x2="-75" y2="28"/>
      <circle cx="-75" cy="28" r="3.5" stroke="none"/>
    </g>

    <!-- Fragment 2: Hex ring at (700,140), rotated -8 deg -->
    <g transform="translate(700,140) rotate(-8)">
      <path d="M0 -30 L26 -15 L26 15 L0 30 L-26 15 L-26 -15 Z" fill="none"/>
      <line x1="23" y1="-13" x2="23" y2="13" stroke-width="0.7"/>
      <circle cx="0" cy="-30" r="3.5" stroke="none"/>
      <circle cx="26" cy="-15" r="3" stroke="none"/>
      <circle cx="26" cy="15" r="3" stroke="none"/>
      <circle cx="0" cy="30" r="3.5" stroke="none"/>
      <circle cx="-26" cy="15" r="3" stroke="none"/>
      <circle cx="-26" cy="-15" r="5" stroke="none"/>
      <line x1="0" y1="-30" x2="0" y2="-55"/>
      <circle cx="0" cy="-55" r="3.5" stroke="none"/>
      <line x1="0" y1="30" x2="0" y2="55"/>
      <circle cx="0" cy="55" r="3.5" stroke="none"/>
      <line x1="26" y1="15" x2="50" y2="25"/>
      <circle cx="50" cy="25" r="5" stroke="none"/>
    </g>

    <!-- Fragment 3: Anthracene at (1200,300), rotated 5 deg -->
    <g transform="translate(1200,300) rotate(5)">
      <path d="M-45 -26 L-22.5 -13 L0 -26 L22.5 -13 L45 -26 L67.5 -13 L67.5 13 L45 26 L22.5 13 L0 26 L-22.5 13 L-45 26 L-67.5 13 L-67.5 -13 Z" fill="none"/>
      <line x1="-22.5" y1="-13" x2="-22.5" y2="13"/>
      <line x1="22.5" y1="-13" x2="22.5" y2="13"/>
      <line x1="-43" y1="23" x2="-65" y2="13" stroke-width="0.7"/>
      <line x1="43" y1="23" x2="65" y2="13" stroke-width="0.7"/>
      <circle cx="-45" cy="-26" r="3" stroke="none"/>
      <circle cx="-22.5" cy="-13" r="2.5" stroke="none"/>
      <circle cx="0" cy="-26" r="3" stroke="none"/>
      <circle cx="22.5" cy="-13" r="2.5" stroke="none"/>
      <circle cx="45" cy="-26" r="3" stroke="none"/>
      <circle cx="67.5" cy="-13" r="3" stroke="none"/>
      <circle cx="67.5" cy="13" r="3" stroke="none"/>
      <circle cx="45" cy="26" r="3" stroke="none"/>
      <circle cx="22.5" cy="13" r="2.5" stroke="none"/>
      <circle cx="0" cy="26" r="3" stroke="none"/>
      <circle cx="-22.5" cy="13" r="2.5" stroke="none"/>
      <circle cx="-45" cy="26" r="3" stroke="none"/>
      <circle cx="-67.5" cy="13" r="3" stroke="none"/>
      <circle cx="-67.5" cy="-13" r="3" stroke="none"/>
      <line x1="-45" y1="-26" x2="-58" y2="-48"/>
      <circle cx="-58" cy="-48" r="3.5" stroke="none"/>
      <line x1="45" y1="-26" x2="58" y2="-48"/>
      <circle cx="58" cy="-48" r="5" stroke="none"/>
      <line x1="-67.5" y1="13" x2="-88" y2="25"/>
      <circle cx="-88" cy="25" r="3.5" stroke="none"/>
      <line x1="67.5" y1="13" x2="88" y2="25"/>
      <circle cx="88" cy="25" r="3.5" stroke="none"/>
    </g>

    <!-- Fragment 4: Zigzag chain at (350,550), rotated -18 deg -->
    <g transform="translate(350,550) rotate(-18)">
      <path d="M-60 -15 L-30 15 L0 -15 L30 15 L60 -15" fill="none"/>
      <line x1="0" y1="-15" x2="0" y2="-42"/>
      <line x1="30" y1="15" x2="52" y2="32"/>
      <circle cx="-60" cy="-15" r="3.5" stroke="none"/>
      <circle cx="-30" cy="15" r="3" stroke="none"/>
      <circle cx="0" cy="-15" r="3" stroke="none"/>
      <circle cx="30" cy="15" r="3" stroke="none"/>
      <circle cx="60" cy="-15" r="3.5" stroke="none"/>
      <circle cx="0" cy="-42" r="5" stroke="none"/>
      <circle cx="52" cy="32" r="3.5" stroke="none"/>
    </g>

    <!-- Fragment 5: Pentagon at (900,480), rotated 22 deg -->
    <g transform="translate(900,480) rotate(22)">
      <path d="M0 -22 L20.9 -6.8 L12.9 17.8 L-12.9 17.8 L-20.9 -6.8 Z" fill="none"/>
      <circle cx="0" cy="-22" r="3" stroke="none"/>
      <circle cx="20.9" cy="-6.8" r="3" stroke="none"/>
      <circle cx="12.9" cy="17.8" r="3" stroke="none"/>
      <circle cx="-12.9" cy="17.8" r="3" stroke="none"/>
      <circle cx="-20.9" cy="-6.8" r="5" stroke="none"/>
      <line x1="0" y1="-22" x2="0" y2="-48"/>
      <circle cx="0" cy="-48" r="3.5" stroke="none"/>
    </g>

    <!-- Fragment 6: Hex ring at (150,850), rotated -12 deg -->
    <g transform="translate(150,850) rotate(-12)">
      <path d="M0 -28 L24 -14 L24 14 L0 28 L-24 14 L-24 -14 Z" fill="none"/>
      <circle cx="0" cy="-28" r="3" stroke="none"/>
      <circle cx="24" cy="-14" r="3" stroke="none"/>
      <circle cx="24" cy="14" r="3" stroke="none"/>
      <circle cx="0" cy="28" r="3" stroke="none"/>
      <circle cx="-24" cy="14" r="3" stroke="none"/>
      <circle cx="-24" cy="-14" r="3" stroke="none"/>
      <line x1="0" y1="-28" x2="0" y2="-52"/>
      <circle cx="0" cy="-52" r="3.5" stroke="none"/>
      <line x1="0" y1="28" x2="0" y2="52"/>
      <circle cx="0" cy="52" r="3.5" stroke="none"/>
    </g>

    <!-- Fragment 7: Triangle at (620,750), rotated 10 deg -->
    <g transform="translate(620,750) rotate(10)">
      <path d="M0 -20 L17.3 10 L-17.3 10 Z" fill="none"/>
      <circle cx="0" cy="-20" r="3" stroke="none"/>
      <circle cx="17.3" cy="10" r="3" stroke="none"/>
      <circle cx="-17.3" cy="10" r="3" stroke="none"/>
      <line x1="17.3" y1="10" x2="38" y2="22"/>
      <circle cx="38" cy="22" r="3.5" stroke="none"/>
    </g>

    <!-- Fragment 8: Short chain at (1500,520), rotated -7 deg -->
    <g transform="translate(1500,520) rotate(-7)">
      <path d="M-25 -12 L0 12 L25 -12" fill="none"/>
      <line x1="0" y1="12" x2="0" y2="38"/>
      <circle cx="-25" cy="-12" r="3" stroke="none"/>
      <circle cx="0" cy="12" r="3" stroke="none"/>
      <circle cx="25" cy="-12" r="3" stroke="none"/>
      <circle cx="0" cy="38" r="5" stroke="none"/>
    </g>

    <!-- Fragment 9: Cyclobutane at (400,1020), rotated 28 deg -->
    <g transform="translate(400,1020) rotate(28)">
      <path d="M0 -18 L18 0 L0 18 L-18 0 Z" fill="none"/>
      <circle cx="0" cy="-18" r="3" stroke="none"/>
      <circle cx="18" cy="0" r="3" stroke="none"/>
      <circle cx="0" cy="18" r="3" stroke="none"/>
      <circle cx="-18" cy="0" r="3" stroke="none"/>
      <line x1="18" y1="0" x2="40" y2="0"/>
      <circle cx="40" cy="0" r="3.5" stroke="none"/>
    </g>

    <!-- Fragment 10: V-shape at (1100,950), rotated -20 deg -->
    <g transform="translate(1100,950) rotate(-20)">
      <path d="M-28 -15 L0 12 L28 -15" fill="none"/>
      <line x1="0" y1="12" x2="0" y2="40"/>
      <circle cx="-28" cy="-15" r="3" stroke="none"/>
      <circle cx="0" cy="12" r="3" stroke="none"/>
      <circle cx="28" cy="-15" r="3" stroke="none"/>
      <circle cx="0" cy="40" r="5" stroke="none"/>
    </g>

    <!-- Fragment 11: Small hex at (500,200), rotated 30 deg -->
    <g transform="translate(500,200) rotate(30)">
      <path d="M0 -22 L19 -11 L19 11 L0 22 L-19 11 L-19 -11 Z" fill="none"/>
      <circle cx="0" cy="-22" r="3" stroke="none"/>
      <circle cx="19" cy="-11" r="3" stroke="none"/>
      <circle cx="19" cy="11" r="3" stroke="none"/>
      <circle cx="0" cy="22" r="3" stroke="none"/>
      <circle cx="-19" cy="11" r="5" stroke="none"/>
      <circle cx="-19" cy="-11" r="3" stroke="none"/>
    </g>

    <!-- Fragment 12: Fused bicyclic at (1700,800), rotated -35 deg -->
    <g transform="translate(1700,800) rotate(-35)">
      <path d="M-24 -28 L0 -14 L24 -28 L48 -14 L48 14 L24 28 L0 14 L-24 28 L-48 14 L-48 -14 Z" fill="none"/>
      <line x1="0" y1="-14" x2="0" y2="14"/>
      <circle cx="-24" cy="-28" r="3" stroke="none"/>
      <circle cx="0" cy="-14" r="2.5" stroke="none"/>
      <circle cx="24" cy="-28" r="3" stroke="none"/>
      <circle cx="48" cy="-14" r="3" stroke="none"/>
      <circle cx="48" cy="14" r="3" stroke="none"/>
      <circle cx="24" cy="28" r="3" stroke="none"/>
      <circle cx="0" cy="14" r="2.5" stroke="none"/>
      <circle cx="-24" cy="28" r="3" stroke="none"/>
      <circle cx="-48" cy="14" r="3" stroke="none"/>
      <circle cx="-48" cy="-14" r="3" stroke="none"/>
      <line x1="48" y1="14" x2="72" y2="26"/>
      <circle cx="72" cy="26" r="5" stroke="none"/>
    </g>

    <!-- Fragment 13: Short chain at (300,700), rotated 40 deg -->
    <g transform="translate(300,700) rotate(40)">
      <path d="M-22 -10 L0 10 L22 -10" fill="none"/>
      <circle cx="-22" cy="-10" r="3" stroke="none"/>
      <circle cx="0" cy="10" r="3" stroke="none"/>
      <circle cx="22" cy="-10" r="3" stroke="none"/>
    </g>

    <!-- Fragment 14: Pentagon at (1400,160), rotated -40 deg -->
    <g transform="translate(1400,160) rotate(-40)">
      <path d="M0 -20 L18 -6 L11 15 L-11 15 L-18 -6 Z" fill="none"/>
      <circle cx="0" cy="-20" r="3" stroke="none"/>
      <circle cx="18" cy="-6" r="3" stroke="none"/>
      <circle cx="11" cy="15" r="3" stroke="none"/>
      <circle cx="-11" cy="15" r="5" stroke="none"/>
      <circle cx="-18" cy="-6" r="3" stroke="none"/>
      <line x1="18" y1="-6" x2="38" y2="-12"/>
      <circle cx="38" cy="-12" r="3.5" stroke="none"/>
    </g>

    <!-- Fragment 15: Hex ring at (1800,400), rotated 15 deg -->
    <g transform="translate(1800,400) rotate(15)">
      <path d="M0 -24 L21 -12 L21 12 L0 24 L-21 12 L-21 -12 Z" fill="none"/>
      <circle cx="0" cy="-24" r="3" stroke="none"/>
      <circle cx="21" cy="-12" r="3" stroke="none"/>
      <circle cx="21" cy="12" r="3" stroke="none"/>
      <circle cx="0" cy="24" r="3" stroke="none"/>
      <circle cx="-21" cy="12" r="5" stroke="none"/>
      <circle cx="-21" cy="-12" r="3" stroke="none"/>
      <line x1="0" y1="-24" x2="0" y2="-48"/>
      <circle cx="0" cy="-48" r="3.5" stroke="none"/>
    </g>

    <!-- Fragment 16: Zigzag chain at (800,1050), rotated 22 deg -->
    <g transform="translate(800,1050) rotate(22)">
      <path d="M-40 -12 L-15 12 L15 -12 L40 12" fill="none"/>
      <circle cx="-40" cy="-12" r="3" stroke="none"/>
      <circle cx="-15" cy="12" r="3" stroke="none"/>
      <circle cx="15" cy="-12" r="3" stroke="none"/>
      <circle cx="40" cy="12" r="3" stroke="none"/>
      <line x1="15" y1="-12" x2="15" y2="-35"/>
      <circle cx="15" cy="-35" r="5" stroke="none"/>
    </g>

    <!-- Fragment 17: Triangle at (1600,1050), rotated -15 deg -->
    <g transform="translate(1600,1050) rotate(-15)">
      <path d="M0 -20 L17.3 10 L-17.3 10 Z" fill="none"/>
      <circle cx="0" cy="-20" r="3" stroke="none"/>
      <circle cx="17.3" cy="10" r="3" stroke="none"/>
      <circle cx="-17.3" cy="10" r="3" stroke="none"/>
      <line x1="-17.3" y1="10" x2="-38" y2="22"/>
      <circle cx="-38" cy="22" r="3.5" stroke="none"/>
    </g>

    <!-- Fragment 18: Hex ring at (1050,160), rotated 25 deg -->
    <g transform="translate(1050,160) rotate(25)">
      <path d="M0 -26 L22.5 -13 L22.5 13 L0 26 L-22.5 13 L-22.5 -13 Z" fill="none"/>
      <circle cx="0" cy="-26" r="3" stroke="none"/>
      <circle cx="22.5" cy="-13" r="3" stroke="none"/>
      <circle cx="22.5" cy="13" r="3" stroke="none"/>
      <circle cx="0" cy="26" r="3" stroke="none"/>
      <circle cx="-22.5" cy="13" r="3" stroke="none"/>
      <circle cx="-22.5" cy="-13" r="5" stroke="none"/>
      <line x1="22.5" y1="13" x2="45" y2="25"/>
      <circle cx="45" cy="25" r="3.5" stroke="none"/>
    </g>

    <!-- Fragment 19: Short chain at (500,950), rotated -30 deg -->
    <g transform="translate(500,950) rotate(-30)">
      <path d="M-22 -10 L0 10 L22 -10" fill="none"/>
      <line x1="0" y1="10" x2="0" y2="35"/>
      <circle cx="-22" cy="-10" r="3" stroke="none"/>
      <circle cx="0" cy="10" r="3" stroke="none"/>
      <circle cx="22" cy="-10" r="3" stroke="none"/>
      <circle cx="0" cy="35" r="5" stroke="none"/>
    </g>

    <!-- Fragment 20: Pentagon at (1350,720), rotated 18 deg -->
    <g transform="translate(1350,720) rotate(18)">
      <path d="M0 -22 L20.9 -6.8 L12.9 17.8 L-12.9 17.8 L-20.9 -6.8 Z" fill="none"/>
      <circle cx="0" cy="-22" r="3" stroke="none"/>
      <circle cx="20.9" cy="-6.8" r="3" stroke="none"/>
      <circle cx="12.9" cy="17.8" r="3" stroke="none"/>
      <circle cx="-12.9" cy="17.8" r="5" stroke="none"/>
      <circle cx="-20.9" cy="-6.8" r="3" stroke="none"/>
      <line x1="0" y1="-22" x2="0" y2="-48"/>
      <circle cx="0" cy="-48" r="3.5" stroke="none"/>
    </g>

    <!-- Scattered individual bonds -->
    <line x1="100" y1="100" x2="125" y2="85"/><circle cx="100" cy="100" r="2.5" stroke="none"/><circle cx="125" cy="85" r="2.5" stroke="none"/>
    <line x1="600" y1="90" x2="628" y2="105"/><circle cx="600" cy="90" r="2.5" stroke="none"/><circle cx="628" cy="105" r="2.5" stroke="none"/>
    <line x1="950" y1="250" x2="975" y2="238"/><circle cx="950" cy="250" r="2.5" stroke="none"/><circle cx="975" cy="238" r="2.5" stroke="none"/>
    <line x1="1600" y1="200" x2="1628" y2="215"/><circle cx="1600" cy="200" r="2.5" stroke="none"/><circle cx="1628" cy="215" r="2.5" stroke="none"/>
    <line x1="180" y1="450" x2="205" y2="438"/><circle cx="180" cy="450" r="2.5" stroke="none"/><circle cx="205" cy="438" r="2.5" stroke="none"/>
    <line x1="750" y1="600" x2="778" y2="615"/><circle cx="750" cy="600" r="2.5" stroke="none"/><circle cx="778" cy="615" r="2.5" stroke="none"/>
    <line x1="1100" y1="500" x2="1125" y2="488"/><circle cx="1100" cy="500" r="2.5" stroke="none"/><circle cx="1125" cy="488" r="2.5" stroke="none"/>
    <line x1="1750" y1="600" x2="1775" y2="615"/><circle cx="1750" cy="600" r="2.5" stroke="none"/><circle cx="1775" cy="615" r="2.5" stroke="none"/>
    <line x1="450" y1="400" x2="475" y2="388"/><circle cx="450" cy="400" r="2.5" stroke="none"/><circle cx="475" cy="388" r="2.5" stroke="none"/>
    <line x1="1300" y1="450" x2="1328" y2="462"/><circle cx="1300" cy="450" r="2.5" stroke="none"/><circle cx="1328" cy="462" r="2.5" stroke="none"/>
    <line x1="650" y1="450" x2="675" y2="435"/><circle cx="650" cy="450" r="2.5" stroke="none"/><circle cx="675" cy="435" r="2.5" stroke="none"/>
    <line x1="1050" y1="700" x2="1075" y2="715"/><circle cx="1050" cy="700" r="2.5" stroke="none"/><circle cx="1075" cy="715" r="2.5" stroke="none"/>
    <line x1="250" y1="1080" x2="275" y2="1068"/><circle cx="250" cy="1080" r="2.5" stroke="none"/><circle cx="275" cy="1068" r="2.5" stroke="none"/>
    <line x1="1500" y1="900" x2="1528" y2="912"/><circle cx="1500" cy="900" r="2.5" stroke="none"/><circle cx="1528" cy="912" r="2.5" stroke="none"/>
    <line x1="1850" y1="1050" x2="1878" y2="1038"/><circle cx="1850" cy="1050" r="2.5" stroke="none"/><circle cx="1878" cy="1038" r="2.5" stroke="none"/>
    <line x1="1900" y1="150" x2="1920" y2="168"/><circle cx="1900" cy="150" r="2.5" stroke="none"/><circle cx="1920" cy="168" r="2.5" stroke="none"/>
    <line x1="100" y1="1100" x2="128" y2="1088"/><circle cx="100" cy="1100" r="2.5" stroke="none"/><circle cx="128" cy="1088" r="2.5" stroke="none"/>

    <!-- Scattered lone nodes -->
    <circle cx="350" cy="120" r="2.5" stroke="none"/>
    <circle cx="850" cy="100" r="2" stroke="none"/>
    <circle cx="1250" cy="120" r="2" stroke="none"/>
    <circle cx="1650" cy="100" r="2.5" stroke="none"/>
    <circle cx="120" cy="350" r="2" stroke="none"/>
    <circle cx="550" cy="680" r="2.5" stroke="none"/>
    <circle cx="1000" cy="380" r="2" stroke="none"/>
    <circle cx="1550" cy="350" r="2" stroke="none"/>
    <circle cx="700" cy="900" r="2" stroke="none"/>
    <circle cx="1200" cy="600" r="2.5" stroke="none"/>
    <circle cx="1900" cy="700" r="2" stroke="none"/>
    <circle cx="150" cy="600" r="2" stroke="none"/>
    <circle cx="950" cy="850" r="2.5" stroke="none"/>
    <circle cx="1450" cy="1050" r="2" stroke="none"/>

  </g>
</svg>
